<svg xmlns="http://www.w3.org/2000/svg" viewBox="0 0 2542.35 1431.99"><defs><style>.cls-1{fill:none;}.cls-2{fill:#fd7203;}.cls-3{fill:#1a2ef1;}.cls-4{fill:#fff;}</style></defs><g id="Calque_2" data-name="Calque 2"><g id="Calque_1-2" data-name="Calque 1"><rect class="cls-1" x="307.93" y="1104.12" width="18.09" height="18.09"/><path class="cls-2" d="M1584.24,1401.25c-183,0-355.12-71.28-484.55-200.7S899,899,899,716s71.28-355.12,200.71-484.55S1401.2,30.73,1584.24,30.73a681.64,681.64,0,0,1,259.91,51l29.55,12.12-151.65,332.7-26.8-9.95a319.22,319.22,0,1,0,114.65,525A322.26,322.26,0,0,0,1860,876.88l14.11-24.11,331.71,153.89-15.09,28.61C2071.67,1261,1839.28,1401.25,1584.24,1401.25Z"/><path d="M1584.24,61.47a652.75,652.75,0,0,1,248.25,48.72L1705.94,387.81a349.95,349.95,0,1,0,125.69,575.58,352.67,352.67,0,0,0,54.9-71l277,128.52c-109.65,207.89-327.94,349.59-579.32,349.59-361.49,0-654.53-293-654.53-654.53s293-654.52,654.53-654.52m0-61.47a716.16,716.16,0,0,0-278.72,1375.69A717.24,717.24,0,0,0,1959.28,1326a718.68,718.68,0,0,0,258.65-276.42l30.18-57.21-58.68-27.22-277-128.52-50.67-23.51-28.24,48.21a291.38,291.38,0,0,1-45.34,58.6,288.18,288.18,0,1,1-103.59-474.52l53.61,19.91,23.72-52,126.54-277.62,26.5-58.12-59.11-24.24A712.13,712.13,0,0,0,1584.24,0Z"/><path class="cls-2" d="M2348.61,863.78a160.45,160.45,0,0,1-9,53.19,166.84,166.84,0,0,1-70.34,86.77A173.47,173.47,0,0,1,2178,1029.4q-7.45,0-14.75-.62A172.11,172.11,0,0,1,2062,985.2c-33.56-30.23-54.57-73.44-54.57-121.42a160.7,160.7,0,0,1,1.5-22c6.2-45.52,31.42-85.2,67.69-111.29A173.44,173.44,0,0,1,2178,698.14c.72,0,1.42,0,2.14,0a172.85,172.85,0,0,1,101.37,34C2322.31,762.39,2348.61,810.09,2348.61,863.78Z"/><path d="M2178,1032.07c-4.94,0-10-.21-15-.62a176,176,0,0,1-102.81-44.27c-35.24-31.74-55.45-76.71-55.45-123.4a164.68,164.68,0,0,1,1.52-22.33c6.1-44.82,31.17-86,68.78-113.09A175.49,175.49,0,0,1,2178,695.47c.75,0,1.48,0,2.23,0A174.71,174.71,0,0,1,2283.12,730c43.32,32.13,68.16,80.9,68.16,133.79a162.81,162.81,0,0,1-9.16,54.07c-12.63,36.25-38,67.57-71.46,88.17A176.47,176.47,0,0,1,2178,1032.07Zm.08-331.26H2178a170.17,170.17,0,0,0-99.81,31.89c-36.42,26.2-60.7,66.1-66.61,109.48a160.39,160.39,0,0,0-1.47,21.6c0,45.17,19.57,88.7,53.69,119.43a171.87,171.87,0,0,0,204,18.26c32.41-20,57-50.28,69.22-85.38a157.81,157.81,0,0,0,8.85-52.31c0-51.18-24-98.38-66-129.5a169.42,169.42,0,0,0-99.8-33.44C2179.4,700.81,2178.76,700.81,2178.1,700.81Z"/><path d="M2178,1032.07c-4.94,0-10-.21-15-.62l-1.62-.14-.63-1.49c-16-37.94-25.49-79.18-28.29-122.57-.57-8.85-.86-17.78-.86-26.55,0-67,16-130.52,46.18-183.85l.78-1.37,1.58,0A174.75,174.75,0,0,1,2283.12,730c43.32,32.13,68.16,80.9,68.16,133.79a162.81,162.81,0,0,1-9.16,54.07c-12.63,36.25-38,67.57-71.46,88.17A176.47,176.47,0,0,1,2178,1032.07Zm-12.92-5.82c4.32.31,8.66.48,12.92.48a171.15,171.15,0,0,0,89.84-25.26c32.41-20,57-50.28,69.22-85.38a157.81,157.81,0,0,0,8.85-52.31c0-51.18-24-98.38-66-129.5a169.4,169.4,0,0,0-98.22-33.42C2152.45,753.1,2137,815.25,2137,880.7c0,8.65.28,17.47.85,26.21C2140.57,949.13,2149.74,989.27,2165.1,1026.25Z"/><path d="M2262.6,925a549.27,549.27,0,0,1-85-6.5c-14.69-2.3-29.18-5.26-43.08-8.79-12.36-3.15-24.39-6.79-35.73-10.85-39.63-14.12-71.37-33.2-91.79-55.19l-.86-.92.17-1.25c6.1-44.83,31.17-86.05,68.78-113.1A175.49,175.49,0,0,1,2178,695.47c.75,0,1.48,0,2.23,0A174.71,174.71,0,0,1,2283.12,730c43.32,32.13,68.16,80.9,68.16,133.79a162.81,162.81,0,0,1-9.16,54.07l-.54,1.54-1.61.22A555.52,555.52,0,0,1,2262.6,925Zm-250.82-84c19.87,21,50.54,39.23,88.8,52.87,11.2,4,23.06,7.6,35.26,10.7,13.73,3.49,28.07,6.41,42.59,8.68a542.36,542.36,0,0,0,84.17,6.44,552,552,0,0,0,75-5.06,157.81,157.81,0,0,0,8.32-50.77c0-51.18-24-98.38-66-129.5a169.42,169.42,0,0,0-99.8-33.44c-.76,0-1.39,0-2.11,0a170.17,170.17,0,0,0-99.81,31.89C2042.14,758.64,2018,798,2011.78,840.92Z"/><path d="M2062.43,989.15l-2.19-2c-35.24-31.74-55.45-76.71-55.45-123.4a164.68,164.68,0,0,1,1.52-22.33c6.1-44.82,31.17-86,68.78-113.09l2.47-1.77,1.44,2.67c18.36,34,28.06,74.5,28.06,117.07a267.14,267.14,0,0,1-4.75,50.48c-6.57,34.1-19.75,65.21-38.13,90Zm13.31-254.63c-35,26.2-58.36,65.27-64.14,107.66a160.39,160.39,0,0,0-1.47,21.6c0,44.2,18.74,86.83,51.51,117.42,17-23.72,29.22-53.17,35.42-85.4a261.49,261.49,0,0,0,4.66-49.47C2101.72,805.77,2092.74,767.19,2075.74,734.52Z"/><path d="M2268,1006.11c-27.86-14.56-92.67-52.51-92.67-90.29,0-31.35,20-66.63,67-118,42.75-46.75,36.84-64.48,36.77-64.64l4.91-2.12c.87,2,7.24,21.18-37.74,70.37-45.94,50.27-65.55,84.48-65.55,114.37,0,34.86,62.8,71.44,89.81,85.55Z"/><path d="M1892.7,245.87s33.8-5.58,40.09,6.25l98.43-46.57-23.76-6.09-128.64-11.59Z"/><path class="cls-2" d="M1890.1,235.41s21.32,5.11,26.08,5.11c0,0,4-17.27,1.41-22.55s-29.08-4.23-29.08-4.23Z"/><path class="cls-2" d="M1313.92,308.92h-183.5l17.79-5.24c.47-.14,47.24-14.12,63.41-37,1.15-1.61,2.45-3.48,3.89-5.55,20.32-29.19,67.9-97.55,117.55-108.29,52.61-11.37,151.4-48.27,177-60.42,2.72-1.29,5.19-2.54,7.57-3.74,18.4-9.33,31.7-16.06,109.54-16.06,12.37,0,26.5.17,42,.51,20.17.45,39.36,4.59,62,10.67,206.45,55.54,277.32,113.07,278,113.65l1.21,1-.28,1.53c-.11.57-2.64,13.83-13.21,13.83-8.51,0-33.09-13.33-37.79-15.92-5.62-.47-46.69-4-71.53-10.57,1,9.59,3.44,34.82,2.74,56.32-.52,16.21,4.63,31.54,8.39,42.72,3.43,10.22,5.7,17,3.25,21.25a6.71,6.71,0,0,1-6.08,3.41c-9.67,0-26.3-16.74-40-53.49-14.55-39.11-49.72-66.13-94.08-72.29-19.26-2.68-33.17-4.61-46.57-4.61-12.42,0-24.43,1.67-40.16,5.61-4.66,1.16-9.51,2.44-14.58,3.79-28.33,7.49-63.59,16.81-108,16.81-5.55,0-11.19-.14-16.76-.44q-3.1-.17-6.07-.16c-46.2,0-70,28.59-85.67,47.51-2.85,3.43-5.32,6.39-7.67,8.9-15.79,16.85-84,72.93-86.95,75.31l-1.78,1.46Z"/><path d="M1627.22,75.25c12.26,0,26.14.17,41.91.51,19.75.44,38.84,4.53,61.32,10.58,208.28,56,277,113.12,277,113.12s-2.12,11.63-10.58,11.63-37-15.86-37-15.86-50-4-75.42-11.59c0,0,4,32.74,3.17,59.88-1,29.75,16.21,55.33,12,62.73a4.08,4.08,0,0,1-3.76,2.06c-7.66,0-23.63-14.55-37.48-51.75-16.91-45.47-58.15-68.73-96.21-74-19.75-2.75-33.53-4.63-46.94-4.64-12.43,0-24.54,1.63-40.81,5.7-30.64,7.66-70,20.52-121.88,20.52-5.41,0-10.94-.14-16.62-.44q-3.17-.16-6.21-.16c-55.82,0-80,40.93-95.29,57.25-15.86,16.92-86.69,75.07-86.69,75.07L1315,306.25H1149s47.93-14.1,64.85-38.06,67.66-101.5,119.82-112.78,150.84-47.93,177.62-60.61c23.49-11.13,28.55-19.55,116-19.55m0-5.34c-78.49,0-92,6.85-110.75,16.34-2.38,1.2-4.83,2.45-7.51,3.71-25.56,12.11-124,48.89-176.46,60.23-50.68,10.95-98.68,79.92-119.18,109.37-1.44,2.07-2.74,3.93-3.88,5.54-15.63,22.15-61.53,35.88-62,36l-35.52,10.47h201l31.24,28.23,3.42,3.08,3.56-2.92c2.9-2.38,71.29-58.56,87.2-75.54,2.41-2.57,5-5.7,7.78-9,15.4-18.53,38.67-46.54,83.61-46.54,2,0,3.94.06,5.93.16,5.62.3,11.3.45,16.9.45,44.7,0,80.15-9.38,108.63-16.91,5.1-1.35,9.92-2.62,14.55-3.78,15.5-3.88,27.32-5.53,39.51-5.53,13.22,0,27,1.92,46.21,4.58,43.36,6,77.73,32.41,91.93,70.58s31.57,55.23,42.49,55.23a9.4,9.4,0,0,0,8.4-4.75c3-5.33.62-12.53-3-23.43-3.9-11.6-8.75-26.05-8.24-41.78.63-19.49-1.2-41.46-2.35-52.89,24.48,5.8,60.6,9.07,67.66,9.67,8,4.4,29.86,16,38.59,16,10.2,0,14.75-10.07,15.84-16l.55-3.07-2.4-2c-2.84-2.36-72-58.48-279-114.17-22.78-6.13-42.15-10.31-62.59-10.76-15.5-.34-29.64-.51-42-.51Z"/><polygon class="cls-3" points="517.4 1100.51 253.92 660.58 253.92 959.38 304.61 959.38 304.61 1100.51 24.05 1100.51 24.05 959.38 72.4 959.38 72.4 462.45 24.05 462.45 24.05 323.16 252.6 323.16 518.01 764.13 518.01 464.3 467.32 464.3 467.32 323.16 747.88 323.16 747.88 464.3 699.53 464.3 699.53 961.22 747.88 961.22 747.88 1100.51 517.4 1100.51"/><path d="M723.82,347.21v93H675.48v545h48.34v91.18H531L229.86,573.6V983.43h50.7v93H48.11v-93H96.45v-545H48.11V347.21H239L542.07,850.74V440.24h-50.7v-93H723.82m48.11-48.1H443.26V488.35H494V677.53L280.22,322.41l-14-23.3H0V486.5H48.35V935.33H0v189.24H328.67V935.33H278V747.55l211.79,353.63,14,23.39H771.93V937.17H723.58V488.35h48.35V299.11Z"/><path class="cls-4" d="M723.82,347.21v93H675.48v545h48.34v91.18H531L229.86,573.6V983.43h50.7v93H48.11v-93H96.45v-545H48.11V347.21H239L542.07,850.74V440.24h-50.7v-93H723.82m26.73-26.72H464.64V467h50.7V754.51L261.9,333.43l-7.79-12.94H21.38V465.12H69.73V956.71H21.38v146.48H307.29V956.71h-50.7V670.24l251.51,420,7.78,13H750.55V958.55H702.2V467h48.35V320.49Z"/><path class="cls-3" d="M835.21,1102.06V959.59H886v-494H835.21V323.16h471.48l125.56,121.25V634.77l-65.37,65.35,65.37,65.37V979.85l-119.51,115.42-7,6.79Zm382.35-142.47,33.18-30V803.75l-33-33H1067.48V959.59Zm1.38-331.28,31.8-31.8V498.08l-33.39-32.45H1067.48V628.31Z"/><path d="M1297,347.21,1408.2,454.62V624.81l-74.75,74.72-.59.59,75.34,75.34V969.64L1297,1077.05l-1,1H859.27V983.65H910V441.58H859.27V347.21H1297M1043.43,652.36H1228.9l45.89-45.89V487.92l-47.68-46.34H1043.43V652.36m0,331.29h183.39l48-43.33V793.79l-47.06-47.06h-184.3V983.65m273-684.54H811.16V489.68h50.75V935.54H811.16v190.58h504.37l14-13.63.92-.9,111.17-107.34,14.69-14.19V755.53l-14.09-14.09-41.32-41.32,41.31-41.29,14.1-14.09V434.2L1441.62,420,1330.39,312.61l-14-13.5ZM1091.54,489.68h116l19.09,18.57v78.3L1209,604.26H1091.54V489.68Zm0,305.15H1207.8l18.88,18.89V919l-18.37,16.59H1091.54V794.83Z"/><path class="cls-4" d="M1297,347.21,1408.2,454.62V624.81l-74.75,74.72-.59.59,75.34,75.34V969.64L1297,1077.05l-1,1H859.27V983.65H910V441.58H859.27V347.21H1297M1043.43,652.36H1228.9l45.89-45.89V487.92l-47.68-46.34H1043.43V652.36m0,331.29h183.39l48-43.33V793.79l-47.06-47.06h-184.3V983.65m264.34-663.16H832.54V468.3h50.75V956.92H832.54v147.82h474.3l7.78-7.57,1-1,111.16-107.33,8.16-7.88V764.39l-7.83-7.83-56.44-56.44,56.44-56.41,7.83-7.83V443.28l-8.16-7.88L1315.54,328l-7.77-7.5ZM1070.15,468.3h146.11l31.8,30.91V595.4l-30.23,30.24H1070.15V468.3Zm0,305.15h146.51l31.4,31.41V928.45l-31.52,28.47H1070.15V773.45Z"/><path class="cls-2" d="M2278.5,511.38h0c-18.63,0-37.87-.89-57.18-2.65-85.18-7.76-169.68-32.33-231.83-67.41-64.45-36.38-97.88-79.13-94.12-120.38,7.5-82.17,98.66-129.29,250.12-129.29,26.76,0,55.68,1.47,85.95,4.36,85.83,8.22,165,31.52,222.83,65.61,58.67,34.57,88.89,76.45,85.1,117.93C2532.3,457.17,2425,511.38,2278.5,511.38Zm-205.34-86.26c48,16.76,102.8,28.29,158.6,33.36,20.47,1.86,40.74,2.81,60.25,2.81,120.12,0,207.27-35.75,211.93-86.93,2.48-27.15-30.13-58.69-89.46-86.54s-136.11-47.72-210.62-54.49c-18.42-1.68-36.55-2.53-53.88-2.53-79.39,0-144.56,17.91-178.8,49.14-10.71,9.72-18,20.45-21.57,31.89a54.36,54.36,0,0,0-2.43,11.86c-3.11,34.24,44.94,73,125.38,101.2l.58.21Z"/><path d="M2145.48,194.32q39.43,0,85.7,4.35c176.27,16.87,313.16,96.94,305.52,180.64-6.77,74.42-111.19,129.4-258.21,129.4-18.35,0-37.37-.86-56.94-2.64C2045.19,490,1890.4,404.89,1898,321.18c6.59-72.18,83.14-126.86,247.46-126.86M2292,464c123.61,0,209.86-37.37,214.59-89.35,5.48-60.08-147.28-129.83-302.5-144q-28.35-2.58-54.12-2.54c-85.08,0-148,20.12-180.6,49.85-11,10-18.58,21.19-22.32,33.06a57,57,0,0,0-2.54,12.42c-3.42,37.66,49.2,76.65,127.16,104l0,0c46.42,16.28,101.87,28.44,159.81,33.7,21,1.91,41.18,2.82,60.49,2.82M2145.48,189c-79.21,0-141.62,12.46-185.49,37-40.44,22.66-63.71,55.4-67.29,94.68-3.86,42.35,30,86,95.47,123,62.47,35.26,147.36,60,232.9,67.74,19.39,1.77,38.71,2.66,57.42,2.66,148,0,256.34-55.21,263.53-134.26,3.89-42.56-26.8-85.34-86.4-120.47-58.19-34.29-137.72-57.72-223.94-66-30.35-2.9-59.36-4.37-86.2-4.37Zm-70.92,233.8-1.11-.41c-79.24-27.76-126.6-65.48-123.61-98.43a51.54,51.54,0,0,1,2.31-11.27c3.47-11,10.47-21.35,20.82-30.74,33.77-30.8,98.28-48.46,177-48.46,17.26,0,35.3.85,53.64,2.52,74.21,6.74,150.65,26.52,209.72,54.25,57.4,26.94,90.27,58.3,87.94,83.88-2.12,23.26-23.24,44.47-59.47,59.73-38.46,16.2-90.26,24.77-149.8,24.77-19.42,0-39.61-.94-60-2.8-55.4-5-109.81-16.46-157.45-33Z"/><path d="M2147.76,357.12l-5.2-1.21c2.22-9.5,1.51-22.59.76-36.45-.64-11.75-1.36-25.08-.38-38.08a158,158,0,0,1,13.12-51.53l4.82,2.31a155.39,155.39,0,0,0-12.61,49.62c-.95,12.66-.27,25.23.39,37.39C2149.43,333.42,2150.15,346.88,2147.76,357.12Z"/><path d="M2272.89,435.85c-.16-8.27-7.18-27.61-14.61-48.08-9.17-25.27-19.57-53.91-20.89-71.81-2.13-28.82,17.17-75.38,18-77.35l4.94,2.06c-.2.47-19.63,47.35-17.6,74.9C2244,332.73,2254.25,361,2263.3,386c7.92,21.81,14.76,40.64,14.93,49.8Z"/><path d="M2355,460.34c-.25-3.22-5.71-78.94,23.56-100.64l3.18,4.3c-26.9,19.95-21.47,95.17-21.41,95.93Z"/><path d="M2224.83,570.09l-5.32-.45c1.58-18.61-3.41-40.14-7.42-57.44-2.36-10.17-4.22-18.21-4.21-23.4,0-12.61-8.21-29.62-8.29-29.79l-.11-.26c-21.47-59.1-67.71-85.27-101.47-104.37-20.35-11.52-35.06-19.84-36.81-31.53-4.13-27.55-24.47-77.47-24.68-78l5-2c.85,2.07,20.79,51,25,79.2,1.36,9.11,15.83,17.3,34.15,27.67,32.52,18.4,81.65,46.2,103.81,107.06.86,1.79,8.8,18.63,8.77,32,0,4.57,1.89,12.74,4.08,22.19C2221.39,528.66,2226.49,550.64,2224.83,570.09Z"/><path d="M2067,333.52c-51.51-32.8-70.35-71-71.12-72.63l4.81-2.32c.18.38,19,38.51,69.18,70.44Z"/><path d="M2132.68,375.53c-18.77-14.56-45.26-14.46-45.56-14.55l-.3,0c-114.46-12.18-118.31-81.06-118.33-81.75l5.34-.2c.11,2.64,3.94,64.92,113.41,76.62,2.54,0,29,.39,48.72,15.68Z"/><path d="M2379.25,461.42l.43-5.26a93.27,93.27,0,0,1,3.42-18c-1.32-8.22-12.92-82.8.49-103.8,2.86-4.47,5.6-8.45,8-12,9.27-13.48,14.87-21.61,14.59-37.49l5.33-.36c.39,3.32,9.53,81.52-.21,102.41-1.85,4-3.89,8.08-6,12.35-7.94,16.05-16.84,34-19.64,51.72,12.15-7.9,44.53-29.94,59.47-49.79,18.27-24.25,18.32-83.35,18.32-83.94l5.34,0c0,2.5,0,61.49-19.39,87.18-19.12,25.38-63.77,53-65.67,54.14Zm28.9-156.6c-2.78,7.06-7.08,13.3-12.15,20.67-2.39,3.47-5.1,7.4-7.9,11.8-9.93,15.53-4.32,67-1.23,89.71,4-10.41,9-20.54,13.65-30,2.09-4.23,4.12-8.32,5.94-12.24C2412.72,371.35,2410.31,329.79,2408.15,304.82Z"/><path d="M2162.12,399.84c-30.64-19.54-94-20.54-128-21.08-6.95-.11-12.43-.19-16.23-.42-39.32-2.32-66.73-72.21-67.87-75.18l5-1.93c.27.7,27.31,69.65,63.21,71.78,3.68.22,9.11.3,16,.41,34.57.54,98.91,1.56,130.83,21.92Z"/><path d="M2184.76,676.69h-.2a9,9,0,0,1-6.73-3.25l-9.77-11.79a10.22,10.22,0,0,1-.72-12.15c3.41-5.26,9.61-14.58,19.77-29.19,15.49-22.27.78-40.4.15-41.16-.41-.51-35.5-44.78-64.3-61.25a153.45,153.45,0,0,1-39.45-32.15,32.1,32.1,0,0,0-12.08-8.75c-9.72-3.95-27.89-12.47-40.29-25.09-8.36-8.51-13.89-20.1-19.24-31.3-6.31-13.21-12.26-25.68-22.18-32.47l3-4.41c11.1,7.61,17.65,21.31,24,34.58,5.17,10.81,10.5,22,18.23,29.85,11.73,11.94,29.15,20.09,38.5,23.9a37.24,37.24,0,0,1,14.11,10.21,148.09,148.09,0,0,0,38.05,31c29.71,17,64.33,60.67,65.79,62.52.13.15,18,21.88.1,47.59-10.12,14.54-16.29,23.82-19.68,29a4.93,4.93,0,0,0,.35,5.83L2182,670a3.65,3.65,0,0,0,5.51.13l40.59-44.82,52.21-66.27,57.91-52.34c.43-.33,24.27-18.39,41.81-51.59l4.73,2.5c-18.14,34.32-42.14,52.46-43.15,53.22l-57.55,52-51.87,65.91-40.72,45A9,9,0,0,1,2184.76,676.69Z"/><path d="M2219.55,674.32a9.85,9.85,0,0,1-1.62-.14,9.21,9.21,0,0,1-7-5.65l-20.72-51.4,5-2,20.72,51.4a3.83,3.83,0,0,0,2.95,2.39,3.88,3.88,0,0,0,3.59-1.25l24.86-27.77,47.58-40.71L2344,562.76l21.81-24.25-4.67-33.66-6.25-46,5.3-.72,11.26,82.09-24.05,26.65-49.16,36.48-47.3,40.47-24.48,27.39A9.2,9.2,0,0,1,2219.55,674.32Z"/><path d="M2309,691.12h-10a14.62,14.62,0,0,1-10.36-4.27L2196,595a5.22,5.22,0,0,1,.67-8c10-7,44.39-32.18,65.23-60.63a54.38,54.38,0,0,0,10.33-34.11l-1.08-28.46c-.1-1.28-2.67-34.46,13.13-59.59,16.39-26.08,34.17-67.33,34.83-92.4.7-26.57,3.69-56.46,3.72-56.75l5.31.53c0,.3-3,30-3.68,56.37-.69,26-18.88,68.41-35.65,95.09-14.84,23.6-12.35,56.1-12.32,56.43l1.08,28.58a59.77,59.77,0,0,1-11.36,37.47c-21.33,29.1-56.27,54.7-66.47,61.85l92.57,91.67a9.27,9.27,0,0,0,6.59,2.72h10a6.55,6.55,0,0,0,4.81-2.1c6.85-7.41,29.63-32,35.41-37.82,6.4-6.4,28.76-39.42,35.51-51.24,3-5.31,8.5-24.28,13.79-42.62,5.48-19,10.66-37,13.74-42,.76-1.25,1.55-2.66,2.35-4.21A367,367,0,0,1,2444.64,458c3.67-5,7.29-10.16,10.74-15.27a233.44,233.44,0,0,1,26.18-32.63c5.12-5.25,7-8.12,7.69-9.61,5.36-11.64-17.5-45.32-26.75-57.32l4.23-3.27c3.61,4.68,35,46.17,27.38,62.82-1.27,2.76-4.12,6.4-8.72,11.11a228.06,228.06,0,0,0-25.58,31.89c-3.49,5.17-7.14,10.36-10.85,15.43a361,361,0,0,0-29.64,47.07c-.85,1.65-1.71,3.18-2.54,4.54-2.7,4.42-8,22.87-13.16,40.72-5.63,19.5-10.94,37.93-14.29,43.79-6.35,11.12-29.19,45.18-36.38,52.37-5.7,5.7-28.42,30.27-35.25,37.67A11.92,11.92,0,0,1,2309,691.12Z"/><path d="M2144.17,533c-1.83-6.27-14.48-29.85-20.91-41.44L2091,442.84A152.4,152.4,0,0,1,2080.08,423c-4.24-9.09-16.16-26.84-48.27-43.68l2.48-4.73c33.5,17.57,46.1,36.45,50.63,46.15a147.86,147.86,0,0,0,10.55,19.17l32.35,48.86c.88,1.56,19,34.31,21.48,42.72Z"/><path d="M2160.89,548.53c-1.18-14.73,1-31.54,3.23-41.47a90.86,90.86,0,0,0,2.16-20V458.26a110.75,110.75,0,0,0-.66-12.23c-.65-5.79-1-10.5-1.34-14.66-1.08-13.93-1.73-22.33-11.32-48.79-6.33-17.47-16.88-39.75-27.08-61.29-11.12-23.5-21.63-45.69-24.1-56.75-4.77-21.38,3.26-32.7,3.6-33.17l4.32,3.15c-.06.08-6.9,10-2.7,28.86,2.34,10.47,12.72,32.4,23.71,55.62,10.25,21.65,20.86,44.05,27.28,61.75,9.84,27.15,10.51,35.83,11.62,50.21.32,4.11.68,8.77,1.32,14.47a116.7,116.7,0,0,1,.7,12.83V487a96.57,96.57,0,0,1-2.29,21.19c-2.15,9.56-4.25,25.74-3.12,39.87Z"/><path d="M2154.42,541.87l-.15-5.35c38.57-1.1,51.73-25.32,53.29-28.52.35-4,2.47-35.4-12.29-51.4-.2-.19-28.55-28.16-53.63-43.68-25.93-16-52-62.43-53.13-64.4l4.66-2.61c.27.47,26.54,47.16,51.29,62.47,25.59,15.83,54.37,44.23,54.66,44.51,17.44,18.91,13.88,54.59,13.72,56.1l-.2.77C2212.1,511,2198.89,540.6,2154.42,541.87Z"/><path d="M2381,665.11c-9.62,0-24.72-3.8-45.37-20-32.76-25.75-103.71-110.73-120-130.47-5.32,25.18-10.93,71.74-11,72.22l-5.31-.64c.06-.49,5.92-49.11,11.39-74.16a4.64,4.64,0,0,1,8.1-2C2233.1,527.38,2306,615,2339,640.88c35.07,27.55,51.67,16.92,51.83,16.81s15.27-9.57,15.74-22.73c.53-14.58,0-108.76,0-109.71l5.35,0c0,3.89.52,95.25,0,109.94-.57,16.05-17.46,26.59-18.19,27C2393.37,662.4,2389.17,665.11,2381,665.11Z"/><path d="M2406.64,635.78c-.13-.46-13.54-46.17-62-68.61-16.49-7.63-29.63-17.28-39.09-28.67a49.51,49.51,0,0,1-7.65-50.05l7.51-18.81a52,52,0,0,1,4.92-12.11c35.45-62.43,8.67-136.93,8.4-137.67l5-1.85c.29.77,27.94,77.53-8.77,142.17a47.08,47.08,0,0,0-4.44,11l-.09.3-7.58,19a44.18,44.18,0,0,0,6.8,44.64c9,10.78,21.47,19.94,37.22,27.24,50.76,23.51,64.33,70,64.89,72Z"/><path d="M2408.27,575.63c-1.53-1.31-3.88-3.45-6.86-6.13-8.59-7.76-21.57-19.48-34.74-30l3.33-4.18c13.3,10.6,26.35,22.39,35,30.19,2.94,2.65,5.26,4.76,6.78,6.06Z"/><path d="M2410.72,553.88l-2.55-4.69c.15-.09,15.15-8.35,22.61-19.52,4.83-7.23,9.1-32.51,12.22-51,1.84-10.82,3.42-20.18,4.84-24.9l5.12,1.55c-1.33,4.4-2.88,13.59-4.68,24.24-3.56,21-7.59,44.87-13.05,53.05C2427,544.92,2411.39,553.52,2410.72,553.88Z"/><path d="M2265.66,530.1l-3.16-4.31c.25-.18,25.05-18.63,40.82-50.83l4.8,2.34C2291.74,510.75,2266.72,529.33,2265.66,530.1Z"/><path d="M2078.21,480.8l-8.19-4.68c-41.14-23.46-52.2-29.77-97.17-72.25-48.51-45.81-27-87.12-26.82-87.53l4.71,2.53c-.83,1.55-19.62,38.24,25.78,81.12,44.51,42,55.45,48.27,96.14,71.49l8.2,4.68Z"/><path d="M1886.58,189.13a2.83,2.83,0,0,1-.41,0A54.81,54.81,0,0,1,1864,180a2.67,2.67,0,1,1,3.15-4.31,49.07,49.07,0,0,0,19.81,8.15,2.67,2.67,0,0,1-.41,5.31Z"/></g></g></svg>